<svg width="34" height="34" viewBox="0 0 34 34" fill="none" xmlns="http://www.w3.org/2000/svg">
<path d="M6.60059 23L11.4485 11.3692C11.4941 11.2599 11.5711 11.1665 11.6696 11.1008C11.7682 11.0351 11.884 11 12.0025 11C12.1209 11 12.2368 11.0351 12.3353 11.1008C12.4339 11.1665 12.5108 11.2599 12.5564 11.3692L17.4032 23M28.2058 14.598V23M8.16576 19.3991H15.838M28.2058 18.799C28.2058 21.1191 26.3249 23 24.0048 23C21.6846 23 19.8038 21.1191 19.8038 18.799C19.8038 16.4788 21.6846 14.598 24.0048 14.598C26.3249 14.598 28.2058 16.4788 28.2058 18.799Z" stroke="white" stroke-width="1.3" stroke-linecap="round" stroke-linejoin="round"/>
</svg>
