<svg width="21" height="21" viewBox="0 0 21 21" fill="none" xmlns="http://www.w3.org/2000/svg">
<path d="M13.7053 2.18742C13.711 2.41804 13.6705 2.64746 13.5862 2.86219C13.5019 3.07692 13.3755 3.27263 13.2144 3.43779C13.0534 3.60295 12.8609 3.73423 12.6484 3.82392C12.4359 3.9136 12.2075 3.95987 11.9768 3.96C11.7461 3.96013 11.5178 3.91413 11.3051 3.82469C11.0925 3.73526 10.8999 3.6042 10.7386 3.43922C10.5774 3.27425 10.4508 3.07869 10.3662 2.86405C10.2817 2.64942 10.2409 2.42004 10.2463 2.18942C10.2569 1.73792 10.4436 1.30846 10.7666 0.992791C11.0896 0.677119 11.5232 0.500261 11.9748 0.5C12.4265 0.499739 12.8603 0.676095 13.1836 0.991394C13.507 1.30669 13.6942 1.73593 13.7053 2.18742ZM9.27731 4.01642C9.28292 4.24704 9.24236 4.47645 9.15799 4.69116C9.07363 4.90587 8.94718 5.10154 8.78608 5.26665C8.62498 5.43177 8.43249 5.563 8.21992 5.65262C8.00735 5.74224 7.77901 5.78844 7.54832 5.78851C7.31764 5.78858 7.08927 5.7425 6.87665 5.65301C6.66403 5.56351 6.47146 5.43239 6.31026 5.26737C6.14907 5.10235 6.0225 4.90675 5.93802 4.69209C5.85353 4.47743 5.81283 4.24804 5.81831 4.01742C5.82904 3.56593 6.01589 3.13652 6.33896 2.82095C6.66203 2.50537 7.0957 2.32864 7.54732 2.32851C7.99895 2.32838 8.43272 2.50486 8.75597 2.82025C9.07922 3.13564 9.26632 3.56493 9.27731 4.01642ZM7.44531 8.46842C7.45327 8.70042 7.41446 8.93165 7.33118 9.14834C7.24791 9.36503 7.12187 9.56274 6.96059 9.7297C6.79931 9.89665 6.60607 10.0294 6.39239 10.1202C6.17872 10.2109 5.94897 10.2577 5.71683 10.2577C5.48469 10.2578 5.25491 10.2111 5.04118 10.1206C4.82745 10.03 4.63414 9.89728 4.47276 9.73042C4.31138 9.56355 4.18524 9.36591 4.10184 9.14927C4.01843 8.93263 3.97949 8.70143 3.98731 8.46942C4.00243 8.02104 4.19115 7.59606 4.51365 7.28417C4.83614 6.97227 5.26719 6.79786 5.71583 6.79773C6.16447 6.7976 6.59562 6.97177 6.91829 7.28347C7.24097 7.59518 7.42993 8.02004 7.44531 8.46842ZM9.25831 12.9044C9.26634 13.1364 9.22759 13.3677 9.14438 13.5844C9.06116 13.8011 8.93519 13.9988 8.77395 14.1658C8.61272 14.3328 8.41952 14.4657 8.20587 14.5565C7.99222 14.6472 7.76248 14.6941 7.53035 14.6942C7.29821 14.6944 7.06842 14.6478 6.85466 14.5572C6.64091 14.4667 6.44756 14.3341 6.28613 14.1673C6.1247 14.0005 5.9985 13.8029 5.91503 13.5862C5.83157 13.3696 5.79255 13.1384 5.80031 12.9064C5.8109 12.4549 5.99764 12.0255 6.32061 11.7098C6.64359 11.3941 7.07721 11.2173 7.52883 11.217C7.98046 11.2167 8.41428 11.3931 8.73762 11.7084C9.06097 12.0237 9.2472 12.4529 9.25831 12.9044ZM13.7083 14.7524C13.7163 14.9844 13.6775 15.2157 13.5942 15.4323C13.5109 15.649 13.3849 15.8467 13.2236 16.0137C13.0623 16.1807 12.8691 16.3134 12.6554 16.4042C12.4417 16.4949 12.212 16.5417 11.9798 16.5417C11.7477 16.5418 11.5179 16.4951 11.3042 16.4046C11.0905 16.314 10.8971 16.1813 10.7358 16.0144C10.5744 15.8475 10.4482 15.6499 10.3648 15.4333C10.2814 15.2166 10.2425 14.9854 10.2503 14.7534C10.261 14.3019 10.4479 13.8725 10.771 13.5569C11.094 13.2414 11.5277 13.0646 11.9793 13.0645C12.4309 13.0644 12.8647 13.2409 13.188 13.5562C13.5112 13.8716 13.6983 14.3009 13.7093 14.7524H13.7083ZM18.1593 12.9044C18.165 13.135 18.1245 13.3645 18.0402 13.5792C17.9559 13.7939 17.8295 13.9896 17.6684 14.1548C17.5074 14.32 17.3149 14.4512 17.1024 14.5409C16.8899 14.6306 16.6615 14.6769 16.4308 14.677C16.2001 14.6771 15.9718 14.6311 15.7591 14.5417C15.5465 14.4523 15.3539 14.3212 15.1926 14.1562C15.0314 13.9912 14.9048 13.7957 14.8202 13.5811C14.7357 13.3664 14.6949 13.137 14.7003 12.9064C14.7 12.4476 14.8821 12.0075 15.2063 11.6828C15.5306 11.3582 15.9705 11.1757 16.4293 11.1754C16.8881 11.1752 17.3283 11.3572 17.6529 11.6814C17.9775 12.0057 18.16 12.4456 18.1603 12.9044H18.1593ZM19.9963 8.46842C20.0042 8.70042 19.9653 8.93164 19.882 9.14831C19.7986 9.36497 19.6726 9.56264 19.5112 9.72956C19.3499 9.89647 19.1566 10.0292 18.9429 10.1199C18.7292 10.2105 18.4994 10.2572 18.2673 10.2572C18.0352 10.2572 17.8054 10.2105 17.5917 10.1199C17.378 10.0292 17.1847 9.89647 17.0234 9.72956C16.8621 9.56264 16.736 9.36497 16.6526 9.14831C16.5693 8.93164 16.5304 8.70042 16.5383 8.46842C16.5536 8.02004 16.7424 7.59512 17.065 7.28332C17.3876 6.97152 17.8187 6.79724 18.2673 6.79724C18.716 6.79724 19.147 6.97152 19.4696 7.28332C19.7922 7.59512 19.9811 8.02004 19.9963 8.46842ZM18.1593 4.03042C18.165 4.26104 18.1245 4.49046 18.0402 4.70519C17.9559 4.91992 17.8295 5.11563 17.6684 5.28079C17.5074 5.44595 17.3149 5.57723 17.1024 5.66692C16.8899 5.7566 16.6615 5.80287 16.4308 5.803C16.2001 5.80313 15.9718 5.75713 15.7591 5.66769C15.5465 5.57826 15.3539 5.4472 15.1926 5.28222C15.0314 5.11725 14.9048 4.92169 14.8202 4.70705C14.7357 4.49242 14.6949 4.26304 14.7003 4.03242C14.7 3.5736 14.8821 3.13346 15.2063 2.80883C15.5306 2.48421 15.9705 2.30169 16.4293 2.30142C16.8881 2.30116 17.3283 2.48317 17.6529 2.80742C17.9775 3.13167 18.16 3.5716 18.1603 4.03042H18.1593Z" fill="#E8C570" stroke="#E8C570"/>
<path d="M5.75685 13.3066L0.884853 15.7606C0.157853 16.1556 -0.275147 16.6126 0.197853 17.4586C0.397853 17.8286 0.819853 18.4506 1.42785 19.0616M7.14485 14.6936L4.69685 19.5506C4.14685 20.6406 3.62085 20.5146 3.18785 20.3596C2.53406 20.0263 1.93947 19.5878 1.42785 19.0616M1.42785 19.0616L5.49805 14.9596Z" fill="#E8C570"/>
</svg>
