<svg width="24" height="24" viewBox="0 0 24 24" fill="none" xmlns="http://www.w3.org/2000/svg">
<path d="M3 19.765V9.03068C3 8.71453 3.07371 8.41525 3.22114 8.13286C3.36857 7.85046 3.57171 7.61787 3.83057 7.4351L10.7541 2.3989C11.1167 2.13297 11.5307 2 11.9961 2C12.4616 2 12.8781 2.13297 13.2459 2.3989L20.1694 7.43386C20.4291 7.61664 20.6323 7.84964 20.7789 8.13286C20.9263 8.41525 21 8.71453 21 9.03068V19.765C21 20.096 20.8719 20.3846 20.6156 20.6307C20.3593 20.8769 20.0589 21 19.7143 21H15.3634C15.0686 21 14.8217 20.9045 14.6229 20.7135C14.424 20.5217 14.3246 20.2845 14.3246 20.0021V14.1126C14.3246 13.8302 14.2251 13.5935 14.0263 13.4025C13.8266 13.2106 13.5797 13.1147 13.2857 13.1147H10.7143C10.4203 13.1147 10.1739 13.2106 9.975 13.4025C9.77529 13.5935 9.67543 13.8302 9.67543 14.1126V20.0034C9.67543 20.2858 9.576 20.5225 9.37714 20.7135C9.17829 20.9045 8.93186 21 8.63786 21H4.28571C3.94114 21 3.64071 20.8769 3.38443 20.6307C3.12814 20.3846 3 20.096 3 19.765Z" fill="black"/>
</svg>
