<svg width="24" height="24" viewBox="0 0 24 24" fill="none" xmlns="http://www.w3.org/2000/svg">
<path fill-rule="evenodd" clip-rule="evenodd" d="M11.9993 2.71289L11.5613 2.14477H11.5583L11.5524 2.15056L11.5346 2.16506C11.4292 2.24345 11.3256 2.32415 11.2239 2.40709C9.97535 3.42805 8.82839 4.5626 7.79839 5.79552C5.94137 8.03177 4 11.2202 4 14.8347C4 17.2333 5.02395 19.0522 6.56432 20.2522C8.08545 21.4391 10.0712 22 11.9993 22C13.9288 22 15.9145 21.4391 17.4357 20.2522C18.9746 19.0507 20 17.2333 20 14.8347C20 11.2202 18.0586 8.03177 16.2016 5.79552C15.1717 4.5621 14.0247 3.42706 12.7761 2.40564L12.4654 2.16216L12.4476 2.14766L12.4417 2.14477H12.4387C12.3126 2.05085 12.1585 2 12 2C11.8415 2 11.6874 2.05085 11.5613 2.14477L11.616 2.21578L11.9993 2.71289ZM10.4988 9.75207C10.4988 9.44193 10.7548 9.1912 11.0715 9.1912H12.93C13.2466 9.1912 13.5026 9.44193 13.5026 9.75207V11.9796H15.7769C16.0936 11.9796 16.3496 12.2318 16.3496 12.5405V14.3623C16.3492 14.5108 16.2887 14.653 16.1813 14.7579C16.074 14.8628 15.9286 14.9217 15.7769 14.9217H13.5026V17.1507C13.5026 17.2994 13.4423 17.4421 13.3349 17.5473C13.2275 17.6525 13.0819 17.7116 12.93 17.7116H11.07C10.9184 17.7112 10.7731 17.6519 10.666 17.5468C10.559 17.4416 10.4988 17.2992 10.4988 17.1507V14.9217H8.22307C8.0717 14.9213 7.92665 14.8622 7.81962 14.7574C7.71259 14.6526 7.65229 14.5105 7.6519 14.3623V12.5405C7.6519 12.2318 7.90789 11.9796 8.22307 11.9796H10.4988V9.75207Z" fill="black"/>
</svg>
