<svg width="18" height="22" viewBox="0 0 18 22" fill="none" xmlns="http://www.w3.org/2000/svg">
<path d="M16.6499 8.6499C16.6499 13.6429 11.1109 18.8429 9.2509 20.4489C9.07763 20.5792 8.8667 20.6497 8.6499 20.6497C8.4331 20.6497 8.22218 20.5792 8.0489 20.4489C6.1889 18.8429 0.649902 13.6429 0.649902 8.6499C0.649902 6.52817 1.49276 4.49334 2.99305 2.99305C4.49334 1.49276 6.52817 0.649902 8.6499 0.649902C10.7716 0.649902 12.8065 1.49276 14.3068 2.99305C15.807 4.49334 16.6499 6.52817 16.6499 8.6499Z" stroke="#E8C570" stroke-width="1.3" stroke-linecap="round" stroke-linejoin="round"/>
<path d="M8.6499 11.6499C10.3068 11.6499 11.6499 10.3068 11.6499 8.6499C11.6499 6.99305 10.3068 5.6499 8.6499 5.6499C6.99305 5.6499 5.6499 6.99305 5.6499 8.6499C5.6499 10.3068 6.99305 11.6499 8.6499 11.6499Z" stroke="#E8C570" stroke-width="1.3" stroke-linecap="round" stroke-linejoin="round"/>
</svg>
