<svg width="24" height="24" viewBox="0 0 24 24" fill="none" xmlns="http://www.w3.org/2000/svg">
<path d="M10.268 21.0002C10.4435 21.3042 10.696 21.5567 11 21.7322C11.3041 21.9077 11.6489 22.0001 12 22.0001C12.3511 22.0001 12.6959 21.9077 13 21.7322C13.304 21.5567 13.5565 21.3042 13.732 21.0002M17 17.0002H4C3.8062 17.0003 3.61656 16.9441 3.45413 16.8383C3.29171 16.7326 3.16351 16.582 3.08511 16.4047C3.00672 16.2275 2.98151 16.0313 3.01256 15.84C3.04361 15.6487 3.12957 15.4706 3.26 15.3272C4.59 13.9562 6 12.4992 6 8.00023C5.99986 7.41004 6.08679 6.82305 6.258 6.25823M2 2.00023L22 22.0002M8.668 3.01023C9.57148 2.40692 10.6218 2.06023 11.7069 2.00716C12.792 1.9541 13.8712 2.19665 14.8292 2.70893C15.7873 3.22121 16.5883 3.984 17.1467 4.9159C17.7051 5.8478 18 6.91383 18 8.00023C18 10.6872 18.77 12.6532 19.707 14.0502" stroke="black" stroke-width="1.3" stroke-linecap="round" stroke-linejoin="round"/>
</svg>
