<svg width="24" height="24" viewBox="0 0 24 24" fill="none" xmlns="http://www.w3.org/2000/svg">
<path d="M7.07996 4.00008C7.02267 4.00031 6.96552 4.00162 6.90726 4.00302C5.33294 4.04071 3.40329 4.50356 1 5.57974V16.9604C3.8211 15.6127 5.95412 15.2271 7.69505 15.4129C9.2503 15.5789 10.4658 16.192 11.5742 16.8713V5.50955C10.4964 4.67981 9.24403 4.10482 7.58327 4.01317C7.41565 4.00385 7.24779 3.99948 7.07991 4.00008H7.07996ZM16.92 4.00008C16.7483 3.99933 16.5801 4.00419 16.4166 4.01317C14.756 4.10482 13.5036 4.67981 12.4258 5.50955V16.8713C13.5342 16.192 14.7497 15.5789 16.3049 15.4129C18.0459 15.2271 20.1789 15.6127 23 16.9604V5.57979C20.5967 4.50361 18.6671 4.04076 17.0927 4.00297C17.0345 4.00167 16.9773 4.00036 16.92 4.00017V4.00008ZM17.1856 16.2414C17.1374 16.2413 17.0893 16.2422 17.0419 16.243C16.8187 16.2465 16.6041 16.2603 16.3964 16.2824C14.8212 16.4506 13.6295 17.123 12.4259 17.8929V17.906C12.1216 17.8129 11.8215 17.7951 11.5249 17.8606C10.3381 17.1041 9.15722 16.4483 7.6037 16.2824C7.34396 16.2547 7.07262 16.2411 6.78833 16.243C5.30095 16.253 3.45366 16.7002 1.00005 17.9235V19.9123C3.82114 18.5645 5.95398 18.1789 7.69501 18.3648C8.55591 18.4567 9.31223 18.6849 10.0045 18.9858C9.78718 19.2694 9.57243 19.6063 9.36042 20H14.7991C14.5238 19.6156 14.2514 19.2792 13.9808 18.9918C14.677 18.6877 15.4381 18.4573 16.3049 18.3648C18.0458 18.179 20.1787 18.5645 22.9999 19.9124V17.9236C20.5321 16.6933 18.6773 16.2466 17.1855 16.2416L17.1856 16.2414Z" fill="black"/>
</svg>
