<svg width="24" height="24" viewBox="0 0 24 24" fill="none" xmlns="http://www.w3.org/2000/svg">
<path d="M12.4035 20V7.55556M12.4035 20C12.4035 19.2928 12.1226 18.6145 11.6225 18.1144C11.1224 17.6143 10.4441 17.3333 9.73687 17.3333H4.40354C4.16779 17.3333 3.9417 17.2397 3.775 17.073C3.6083 16.9063 3.51465 16.6802 3.51465 16.4444V4.88889C3.51465 4.65314 3.6083 4.42705 3.775 4.26035C3.9417 4.09365 4.16779 4 4.40354 4H8.84798C9.79097 4 10.6953 4.3746 11.3621 5.0414C12.0289 5.70819 12.4035 6.61256 12.4035 7.55556M12.4035 20C12.4035 19.2928 12.6845 18.6145 13.1846 18.1144C13.6847 17.6143 14.363 17.3333 15.0702 17.3333H20.4035C20.6393 17.3333 20.8654 17.2397 21.0321 17.073C21.1988 16.9063 21.2924 16.6802 21.2924 16.4444V15.2889M12.4035 7.55556C12.4035 6.61256 12.7781 5.70819 13.4449 5.0414C14.1117 4.3746 15.0161 4 15.9591 4H20.4035C20.6393 4 20.8654 4.09365 21.0321 4.26035C21.1988 4.42705 21.2924 4.65314 21.2924 4.88889V6.66667M15.9591 12L17.7369 13.7778L21.2924 10.2222" stroke="black" stroke-width="1.3" stroke-linecap="round" stroke-linejoin="round"/>
</svg>
