<svg width="24" height="24" viewBox="0 0 24 24" fill="none" xmlns="http://www.w3.org/2000/svg">
<path d="M10.2675 21.0002C10.4431 21.3043 10.6955 21.5567 10.9996 21.7322C11.3036 21.9078 11.6485 22.0002 11.9995 22.0002C12.3506 22.0002 12.6954 21.9078 12.9995 21.7322C13.3035 21.5567 13.556 21.3043 13.7315 21.0002M3.26151 15.3262C3.13088 15.4694 3.04467 15.6475 3.01337 15.8388C2.98207 16.03 3.00703 16.2263 3.08522 16.4036C3.16341 16.581 3.29145 16.7318 3.45377 16.8377C3.61609 16.9436 3.80569 17.0001 3.99951 17.0002H19.9995C20.1933 17.0003 20.383 16.9441 20.5454 16.8384C20.7078 16.7326 20.836 16.582 20.9144 16.4048C20.9928 16.2275 21.018 16.0313 20.987 15.84C20.9559 15.6487 20.8699 15.4706 20.7395 15.3272C19.4095 13.9562 17.9995 12.4992 17.9995 8.00024C17.9995 6.40895 17.3674 4.88282 16.2422 3.7576C15.1169 2.63239 13.5908 2.00024 11.9995 2.00024C10.4082 2.00024 8.88209 2.63239 7.75687 3.7576C6.63165 4.88282 5.99951 6.40895 5.99951 8.00024C5.99951 12.4992 4.58851 13.9562 3.26151 15.3262Z" stroke="black" stroke-width="1.3" stroke-linecap="round" stroke-linejoin="round"/>
</svg>
