<svg width="18" height="18" viewBox="0 0 18 18" fill="none" xmlns="http://www.w3.org/2000/svg">
<path d="M12 6.75002C12.4868 7.39913 12.75 8.18863 12.75 9.00002C12.75 9.81141 12.4868 10.6009 12 11.25M14.523 13.773C15.1498 13.1462 15.647 12.4021 15.9862 11.5832C16.3255 10.7642 16.5001 9.88645 16.5001 9.00002C16.5001 8.11359 16.3255 7.23584 15.9862 6.41689C15.647 5.59794 15.1498 4.85382 14.523 4.22702M8.25 3.52652C8.24985 3.42206 8.21876 3.31998 8.16065 3.23316C8.10254 3.14635 8.02001 3.0787 7.92349 3.03874C7.82697 2.99878 7.72077 2.98831 7.61831 3.00865C7.51584 3.02899 7.42169 3.07923 7.34775 3.15302L4.80975 5.69027C4.7118 5.7888 4.59528 5.86692 4.46692 5.92009C4.33856 5.97326 4.20093 6.00043 4.062 6.00002H2.25C2.05109 6.00002 1.86032 6.07904 1.71967 6.21969C1.57902 6.36034 1.5 6.55111 1.5 6.75002V11.25C1.5 11.4489 1.57902 11.6397 1.71967 11.7804C1.86032 11.921 2.05109 12 2.25 12H4.062C4.20093 11.9996 4.33856 12.0268 4.46692 12.08C4.59528 12.1331 4.7118 12.2112 4.80975 12.3098L7.347 14.8478C7.42095 14.9219 7.51523 14.9723 7.61789 14.9928C7.72056 15.0133 7.82699 15.0028 7.92369 14.9627C8.0204 14.9226 8.10303 14.8548 8.16112 14.7677C8.21921 14.6806 8.25015 14.5782 8.25 14.4735V3.52652Z" stroke="white" stroke-width="1.5" stroke-linecap="round" stroke-linejoin="round"/>
</svg>
